{"title":"Moonlighting (Jerzy Skolimowski, 1982) BDRip 720p","uid":12123115,"size":3874489542,"categoryP":"video","categoryS":"hd___movies","magnet":"?xt=urn:btih:5d592b88e8d87adae59e98a6907beb315aab8188&amp;dn=Moonlighting+%28Jerzy+Skolimowski%2C+1982%29+BDRip+720p&amp;tr=udp%3A%2F%2Ftracker.openbittorrent.com%3A80&amp;tr=udp%3A%2F%2Fopen.demonii.com%3A1337&amp;tr=udp%3A%2F%2Ftracker.coppersurfer.tk%3A6969&amp;tr=udp%3A%2F%2Fexodus.desync.com%3A6969","seeders":4,"leechers":0,"uploader":"deadmeadow3","files":1,"time":1436833639,"description":"A Polish contractor, Nowak, leads a group of workmen to London so they can provide cheap labor for a government official based there. Nowak (Irons) has to manage the project and the men as they encounter the tempations of the West and loneliness and separation from their families. Nowak is the only one of the group who speaks English, and he uses this as a tool over his team. When the unrest in Poland leads to a military takeover, Nowak is faced with a much more difficult situation than he expected. \n\nScreens:\n &lt;a href=&quot;\nhttp://i.imgur.com/geTA94B.jpg&quot; rel=&quot;nofollow&quot; target=&quot;_NEW&quot;&gt;\nhttp://i.imgur.com/geTA94B.jpg&lt;/a&gt; &lt;a href=&quot;\nhttp://i.imgur.com/BydJkbg.jpg&quot; rel=&quot;nofollow&quot; target=&quot;_NEW&quot;&gt;\nhttp://i.imgur.com/BydJkbg.jpg&lt;/a&gt; &lt;a href=&quot;\nhttp://i.imgur.com/fWJxF7o.jpg&quot; rel=&quot;nofollow&quot; target=&quot;_NEW&quot;&gt;\nhttp://i.imgur.com/fWJxF7o.jpg&lt;/a&gt; &lt;a href=&quot;\nhttp://i.imgur.com/fqEp3kj.jpg&quot; rel=&quot;nofollow&quot; target=&quot;_NEW&quot;&gt;\nhttp://i.imgur.com/fqEp3kj.jpg&lt;/a&gt; &lt;a href=&quot;\nhttp://i.imgur.com/RfhYv1E.jpg&quot; rel=&quot;nofollow&quot; target=&quot;_NEW&quot;&gt;\nhttp://i.imgur.com/RfhYv1E.jpg&lt;/a&gt; &lt;a href=&quot;\nhttp://i.imgur.com/wLRprJk.jpg&quot; rel=&quot;nofollow&quot; target=&quot;_NEW&quot;&gt;\nhttp://i.imgur.com/wLRprJk.jpg&lt;/a&gt;\n\nFile info:\n\nGeneral\nUnique ID                                : 154438692735056308900856324048147705495 (0x742FCF6F3BE8B3DDE3C93AA1F287EE97)\nComplete name                            : Moonlighting (Jerzy Skolimowski, 1982) BDRip 720p.mkv\nFormat                                   : Matroska\nFormat version                           : Version 2\nFile size                                : 3.61 GiB\nDuration                                 : 1h 37mn\nOverall bit rate                         : 5 308 Kbps\nMovie name                               : Moonlighting\nWriting application                      : HandBrake 0.10.1 2015030800\nWriting library                          : Lavf55.12.0\n\nVideo\nID                                       : 1\nFormat                                   : AVC\nFormat/Info                              : Advanced Video Codec\nFormat profile                           : &lt;a class=&quot;__cf_email__&quot; href=&quot;/cdn-cgi/l/email-protection&quot; data-cfemail=&quot;c58daca2ad8589f1ebf4&quot;&gt;[email&amp;#160;protected]&lt;/a&gt;&lt;script data-cfhash='f9e31' type=&quot;text/javascript&quot;&gt;\n/* &lt;![CDATA[ */!function(){try{var t=&quot;currentScript&quot;in document?document.currentScript:function(){for(var t=document.getElementsByTagName(&quot;script&quot;),e=t.length;e--;)if(t[e].getAttribute(&quot;data-cfhash&quot;))return t[e]}();if(t&amp;&amp;t.previousSibling){var e,r,n,i,c=t.previousSibling,a=c.getAttribute(&quot;data-cfemail&quot;);if(a){for(e=&quot;&quot;,r=parseInt(a.substr(0,2),16),n=2;a.length-n;n+=2)i=parseInt(a.substr(n,2),16)^r,e+=String.fromCharCode(i);e=document.createTextNode(e),c.parentNode.replaceChild(e,c)}t.parentNode.removeChild(t);}}catch(u){}}()/* ]]&gt; */&lt;/script&gt;\nFormat settings, CABAC                   : Yes\nFormat settings, ReFrames                : 4 frames\nCodec ID                                 : V_MPEG4/ISO/AVC\nDuration                                 : 1h 37mn\nBit rate                                 : 4 882 Kbps\nWidth                                    : 1 280 pixels\nHeight                                   : 720 pixels\nDisplay aspect ratio                     : 16:9\nFrame rate mode                          : Constant\nFrame rate                               : 23.976 fps\nColor space                              : YUV\nChroma subsampling                       : 4:2:0\nBit depth                                : 8 bits\nScan type                                : Progressive\nBits/(Pixel*Frame)                       : 0.221\nStream size                              : 3.32 GiB (92%)\nWriting library                          : x264 core 142 r2389 956c8d8\nEncoding settings                        : cabac=1 / ref=2 / deblock=1:-1:-1 / analyse=0x3:0x113 / me=hex / subme=6 / psy=1 / psy_rd=1,00:0,15 / mixed_ref=1 / me_range=16 / chroma_me=1 / trellis=1 / 8x8dct=1 / cqm=0 / deadzone=21,11 / fast_pskip=1 / chroma_qp_offset=-3 / threads=3 / lookahead_threads=1 / sliced_threads=0 / nr=0 / decimate=1 / interlaced=0 / bluray_compat=0 / constrained_intra=0 / bframes=3 / b_pyramid=2 / b_adapt=1 / b_bias=0 / direct=1 / weightb=1 / open_gop=0 / weightp=1 / keyint=240 / keyint_min=24 / scenecut=40 / intra_refresh=0 / rc_lookahead=30 / rc=crf / mbtree=1 / crf=22,0 / qcomp=0,60 / qpmin=0 / qpmax=69 / qpstep=4 / vbv_maxrate=62500 / vbv_bufsize=78125 / crf_max=0,0 / nal_hrd=none / filler=0 / ip_ratio=1,40 / aq=1:1,00\nDefault                                  : Yes\nForced                                   : No\nColor primaries                          : BT.709\nTransfer characteristics                 : BT.709\nMatrix coefficients                      : BT.709\n\nAudio\nID                                       : 2\nFormat                                   : AC-3\nFormat/Info                              : Audio Coding 3\nMode extension                           : CM (complete main)\nFormat settings, Endianness              : Big\nCodec ID                                 : A_AC3\nDuration                                 : 1h 37mn\nBit rate mode                            : Constant\nBit rate                                 : 320 Kbps\nChannel(s)                               : 2 channels\nChannel positions                        : Front: L R\nSampling rate                            : 48.0 KHz\nBit depth                                : 16 bits\nCompression mode                         : Lossy\nDelay relative to video                  : 1mn 5s\nStream size                              : 223 MiB (6%)\nTitle                                    : Stereo\nLanguage                                 : English\nDefault                                  : Yes\nForced                                   : No\n\nText\nID                                       : 3\nFormat                                   : PGS\nCodec ID                                 : S_HDMV/PGS\nCodec ID/Info                            : The same subtitle format used on BDs/HD-DVDs\nLanguage                                 : English\nDefault                                  : No\nForced                                   : No\n\nMenu\n00:00:00.000                             : :Chapter 1\n00:01:17.202                             : :Chapter 2\n00:10:35.760                             : :Chapter 3\n00:16:10.302                             : :Chapter 4\n00:19:35.716                             : :Chapter 5\n00:24:34.431                             : :Chapter 6\n00:35:22.328                             : :Chapter 7\n00:39:35.206                             : :Chapter 8\n00:42:04.438                             : :Chapter 9\n00:48:53.138                             : :Chapter 10\n00:52:34.985                             : :Chapter 11\n00:54:42.070                             : :Chapter 12\n01:02:30.621                             : :Chapter 13\n01:10:04.742                             : :Chapter 14\n01:18:12.854                             : :Chapter 15\n01:22:26.858                             : :Chapter 16\n01:31:31.402                             : :Chapter 17\n01:35:14.959                             : :Chapter 18","torrent":{"xt":"urn:btih:5d592b88e8d87adae59e98a6907beb315aab8188","amp;dn":"Moonlighting+%28Jerzy+Skolimowski%2C+1982%29+BDRip+720p","amp;tr":["udp%3A%2F%2Ftracker.openbittorrent.com%3A80","udp%3A%2F%2Fopen.demonii.com%3A1337","udp%3A%2F%2Ftracker.coppersurfer.tk%3A6969","udp%3A%2F%2Fexodus.desync.com%3A6969"],"infoHash":"5d592b88e8d87adae59e98a6907beb315aab8188","infoHashBuffer":{"type":"Buffer","data":[93,89,43,136,232,216,122,218,229,158,152,166,144,123,235,49,90,171,129,136]},"announce":[],"urlList":[]}}